<svg id="XPO.eqonaat"><symbol viewBox="0 0 48 48" id="XPO.iconarrowback"> <path d="M0 0h48v48H0z" fill="none"/> <path d="M40 22H15.66l11.17-11.17L24 8 8 24l16 16 2.83-2.83L15.66 26H40v-4z"/> </symbol><symbol viewBox="0 0 48 48" id="XPO.iconclose"> <path d="M38 12.83L35.17 10 24 21.17 12.83 10 10 12.83 21.17 24 10 35.17 12.83 38 24 26.83 35.17 38 38 35.17 26.83 24z"/> <path d="M0 0h48v48H0z" fill="none"/> </symbol><symbol viewBox="0 0 48 48" id="XPO.icondone"> <path d="M0 0h48v48H0z" fill="none"/> <path d="M18 32.34L9.66 24l-2.83 2.83L18 38l24-24-2.83-2.83z"/> </symbol><symbol viewBox="0 0 48 48" id="XPO.iconedit"> <path d="M6 34.5V42h7.5l22.13-22.13-7.5-7.5L6 34.5zm35.41-20.41c.78-.78.78-2.05 0-2.83l-4.67-4.67c-.78-.78-2.05-.78-2.83 0l-3.66 3.66 7.5 7.5 3.66-3.66z"/> <path d="M0 0h48v48H0z" fill="none"/> </symbol><symbol viewBox="0 0 48 48" id="XPO.iconfiledownload"> <path d="M38 18h-8V6H18v12h-8l14 14 14-14zM10 36v4h28v-4H10z"/> <path d="M0 0h48v48H0z" fill="none"/> </symbol><symbol viewBox="0 0 48 48" id="XPO.iconflare"> <path d="M0 0h48v48H0z" fill="none"/> <path d="M14 22H2v4h12v-4zm4.34-6.49l-4.24-4.24-2.83 2.83 4.24 4.24 2.83-2.83zM26 2h-4v12h4V2zm10.73 12.1l-2.83-2.83-4.24 4.24 2.83 2.83 4.24-4.24zM34 22v4h12v-4H34zm-10-4c-3.31 0-6 2.69-6 6s2.69 6 6 6 6-2.69 6-6-2.69-6-6-6zm5.66 14.49l4.24 4.24 2.83-2.83-4.24-4.24-2.83 2.83zM11.27 33.9l2.83 2.83 4.24-4.24-2.83-2.83-4.24 4.24zM22 46h4V34h-4v12z"/> </symbol><symbol viewBox="0 0 48 48" id="XPO.iconhelp"> <path d="M0 0h48v48H0z" fill="none"/> <path d="M24 4C12.95 4 4 12.95 4 24s8.95 20 20 20 20-8.95 20-20S35.05 4 24 4zm2 34h-4v-4h4v4zm4.13-15.49l-1.79 1.84C26.9 25.79 26 27 26 30h-4v-1c0-2.21.9-4.21 2.34-5.66l2.49-2.52C27.55 20.1 28 19.1 28 18c0-2.21-1.79-4-4-4s-4 1.79-4 4h-4c0-4.42 3.58-8 8-8s8 3.58 8 8c0 1.76-.71 3.35-1.87 4.51z"/> </symbol><symbol viewBox="0 0 48 48" id="XPO.iconmorevert"> <path d="M0 0h48v48H0z" fill="none"/> <path d="M24 16c2.21 0 4-1.79 4-4s-1.79-4-4-4-4 1.79-4 4 1.79 4 4 4zm0 4c-2.21 0-4 1.79-4 4s1.79 4 4 4 4-1.79 4-4-1.79-4-4-4zm0 12c-2.21 0-4 1.79-4 4s1.79 4 4 4 4-1.79 4-4-1.79-4-4-4z"/> </symbol><symbol viewBox="0 0 48 48" id="XPO.iconsearch"> <path d="M31 28h-1.59l-.55-.55C30.82 25.18 32 22.23 32 19c0-7.18-5.82-13-13-13S6 11.82 6 19s5.82 13 13 13c3.23 0 6.18-1.18 8.45-3.13l.55.55V31l10 9.98L40.98 38 31 28zm-12 0c-4.97 0-9-4.03-9-9s4.03-9 9-9 9 4.03 9 9-4.03 9-9 9z"/> <path d="M0 0h48v48H0z" fill="none"/> </symbol><symbol viewBox="0 0 48 48" id="XPO.iconsettings"> <path d="M0 0h48v48H0z" fill="none"/> <path d="M38.86 25.95c.08-.64.14-1.29.14-1.95s-.06-1.31-.14-1.95l4.23-3.31c.38-.3.49-.84.24-1.28l-4-6.93c-.25-.43-.77-.61-1.22-.43l-4.98 2.01c-1.03-.79-2.16-1.46-3.38-1.97L29 4.84c-.09-.47-.5-.84-1-.84h-8c-.5 0-.91.37-.99.84l-.75 5.3c-1.22.51-2.35 1.17-3.38 1.97L9.9 10.1c-.45-.17-.97 0-1.22.43l-4 6.93c-.25.43-.14.97.24 1.28l4.22 3.31C9.06 22.69 9 23.34 9 24s.06 1.31.14 1.95l-4.22 3.31c-.38.3-.49.84-.24 1.28l4 6.93c.25.43.77.61 1.22.43l4.98-2.01c1.03.79 2.16 1.46 3.38 1.97l.75 5.3c.08.47.49.84.99.84h8c.5 0 .91-.37.99-.84l.75-5.3c1.22-.51 2.35-1.17 3.38-1.97l4.98 2.01c.45.17.97 0 1.22-.43l4-6.93c.25-.43.14-.97-.24-1.28l-4.22-3.31zM24 31c-3.87 0-7-3.13-7-7s3.13-7 7-7 7 3.13 7 7-3.13 7-7 7z"/> </symbol><symbol viewBox="0 0 48 48" id="XPO.icontheme"> <path d="M0 0h48v48H0z" fill="none"/> <path d="M40 17.37V8h-9.37L24 1.37 17.37 8H8v9.37L1.37 24 8 30.63V40h9.37L24 46.63 30.63 40H40v-9.37L46.63 24 40 17.37zM24 36c-1.79 0-3.48-.4-5-1.1 4.13-1.9 7-6.06 7-10.9s-2.87-9-7-10.9c1.52-.7 3.21-1.1 5-1.1 6.63 0 12 5.37 12 12s-5.37 12-12 12z"/> </symbol></svg>